<svg width="32" height="32" viewBox="0 0 32 32" xmlns="http://www.w3.org/2000/svg">
    <clipPath id="clipCircle">
        <ellipse cx="16" cy="16" rx="16" ry="10" />
    </clipPath>
    <g fill="none" fill-rule="evenodd" clip-path="url(#clipCircle)">

        <defs>
            <linearGradient id="Gradient" x1="0" x2="1" y1="0" y2="1">
                <stop offset="0%" stop-color="#23F0C7" />
                <stop offset="100%" stop-color="#5C8001" />
            </linearGradient>
        </defs>
        <path d="M 0 0 V 32 H 32 V 0 H 0 Z M 6 10 L 12 10 L 9 15 Z M 0 10 L 4 10 L 9 18 L 14 10 L 18 10 L 23 18 L 28 10 L 32 10 L 23 24 L 16 13 L 9 24 Z M 20 10 L 26 10 L 23 15 L 20 10 M 16 19 L 19 24 L 13 24 L 16 19" fill="url(#Gradient)" />
    </g>
</svg>